<svg width="22" height="21" viewBox="0 0 22 21" fill="none" xmlns="http://www.w3.org/2000/svg">
<path d="M0.138227 8.91918C-0.577818 13.3053 1.42601 18.5954 7.60477 20.5471C7.71507 20.5667 7.8171 20.5757 7.9127 20.5757C8.6315 20.5757 9.12602 20.0554 9.12602 19.4134C9.03686 18.9458 9.47807 17.0514 8.28037 17.3062C5.96494 17.7854 5.68735 16.5275 5.33438 15.8695C6.33262 17.1157 7.83273 17.0845 8.96425 16.6017C9.59205 16.3335 9.2639 15.6504 9.56172 15.401C10.0176 15.0201 9.786 14.2897 9.18761 14.2262C7.06061 13.9982 5.0908 13.3313 5.0908 10.0224C5.0908 8.08415 6.47417 7.9107 6.09271 7.09981C6.07892 7.0703 5.78662 6.4257 6.05135 5.44672C7.35567 5.68096 7.9559 6.5911 8.58186 6.42749C10.1325 6.01623 11.8395 6.01623 13.3892 6.42749C14.0363 6.59646 14.4987 5.71136 15.9059 5.44136C16.3113 6.9201 15.4712 7.2813 16.0006 7.83471C16.5815 8.44266 16.8766 9.17845 16.8766 10.0224C16.8766 14.9969 12.5408 13.5601 12.1878 14.6893C12.1069 14.9468 12.1924 15.2248 12.4038 15.3974C12.9645 15.856 12.891 17.0335 12.8313 17.9803C12.7697 18.9619 12.7164 19.8086 13.2743 20.286C13.471 20.4559 13.8212 20.6374 14.4545 20.5122C20.5524 18.607 22.5709 13.3402 21.8659 8.96388C19.9393 -2.98766 2.07955 -2.97335 0.138227 8.91918ZM7.73989 18.734L7.74357 19.1854C7.26283 19.0236 6.81059 18.8368 6.38777 18.6285C6.77842 18.7259 7.22699 18.7679 7.73989 18.734ZM8.07999 15.426C8.07539 15.4493 8.0708 15.4734 8.0662 15.4975C7.28214 15.7228 6.67915 15.4984 6.26736 14.8252C6.26736 14.8243 6.26736 14.8243 6.26644 14.8234C6.89148 15.1489 7.53583 15.3241 8.07999 15.426ZM10.9993 1.3538C21.876 1.3538 24.3293 15.8972 14.188 19.1819C14.153 18.9163 14.1852 18.4157 14.2073 18.0625C14.2606 17.2123 14.3231 16.2217 14.0115 15.3938C18.6883 14.447 19.079 9.45203 17.2783 7.22676C17.5016 6.37563 17.4116 4.37566 16.6082 4.1307C16.4188 4.07258 15.4087 3.85891 13.449 5.05782C11.8486 4.6859 10.1215 4.685 8.5212 5.05782C7.54318 4.46149 5.33898 3.49146 4.91615 4.52139C4.42531 5.72119 4.54204 6.69123 4.68819 7.23034C3.08973 9.2008 3.56863 12.4998 5.17904 14.0483C4.26629 13.6236 3.00884 13.4788 2.73768 14.329C2.44079 15.2561 3.57598 15.1435 4.281 16.8359C4.3481 17.0469 4.47219 17.2946 4.66246 17.5404C-1.59811 12.5651 1.42233 1.3538 10.9993 1.3538Z" fill="#828282"/>
</svg>
