<svg width="150" height="100" viewBox="0 0 150 100" fill="none" xmlns="http://www.w3.org/2000/svg">
<rect width="150" height="100" fill="#219653"/>
<g filter="url(#filter0_d)">
<path d="M24.6035 13.7207C27.791 13.7207 30.2227 14.2891 31.8984 15.4258C33.5859 16.5508 34.4297 18.168 34.4297 20.2773C34.4297 21.3086 34.3066 22.1934 34.0605 22.9316C33.8262 23.6582 33.4922 24.2793 33.0586 24.7949C32.6367 25.2988 32.127 25.7207 31.5293 26.0605C30.9434 26.3887 30.3047 26.6699 29.6133 26.9043C30.0938 27.0332 30.5742 27.3789 31.0547 27.9414C31.5469 28.5039 32.0449 29.2012 32.5488 30.0332C33.0527 30.8535 33.5625 31.7676 34.0781 32.7754C34.5938 33.7832 35.1094 34.8027 35.625 35.834C36.1523 36.8652 36.6797 37.8672 37.207 38.8398C37.7461 39.8125 38.2793 40.6797 38.8066 41.4414C39.3457 42.2031 39.8848 42.8125 40.4238 43.2695C40.9746 43.7266 41.5195 43.9551 42.0586 43.9551C42.293 43.9551 42.5215 43.9082 42.7441 43.8145C42.9785 43.7207 43.1602 43.627 43.2891 43.5332L43.6582 44.2188C43.4238 44.3477 43.1367 44.4883 42.7969 44.6406C42.457 44.8047 42.0586 44.957 41.6016 45.0977C41.1445 45.2383 40.6289 45.3555 40.0547 45.4492C39.4922 45.5547 38.8652 45.6074 38.1738 45.6074C37.0371 45.6074 36.0117 45.291 35.0977 44.6582C34.1836 44.0371 33.3984 43.1582 32.7422 42.0215C32.0742 40.8496 31.418 39.6191 30.7734 38.3301C30.1289 37.041 29.4844 35.752 28.8398 34.4629C28.207 33.1738 27.5684 31.9141 26.9238 30.6836C26.291 29.4531 25.6523 28.2988 25.0078 27.2207L25.1484 26.5C25.8398 26.6758 26.4375 26.6348 26.9414 26.377C27.457 26.1191 27.8789 25.7031 28.207 25.1289C28.5352 24.543 28.7754 23.8281 28.9277 22.9844C29.0918 22.1406 29.1738 21.2266 29.1738 20.2422C29.1738 19.5391 29.0977 18.8828 28.9453 18.2734C28.793 17.6523 28.5762 17.1133 28.2949 16.6562C28.0254 16.1875 27.6973 15.8242 27.3105 15.5664C26.9238 15.2969 26.4902 15.1621 26.0098 15.1621C25.6348 15.1621 25.3242 15.2207 25.0781 15.3379C24.8438 15.4434 24.6563 15.584 24.5156 15.7598C24.375 15.9238 24.2754 16.1055 24.2168 16.3047C24.1699 16.4922 24.1465 16.6738 24.1465 16.8496V37.6973C24.1465 38.5996 23.9063 39.2559 23.4258 39.666C22.957 40.0762 22.2363 40.2812 21.2637 40.2812C20.2793 40.2812 19.5527 40.0762 19.084 39.666C18.6152 39.2559 18.3809 38.5996 18.3809 37.6973V16.6738C18.3809 16.0293 17.9355 15.707 17.0449 15.707C16.4004 15.707 15.7441 15.8066 15.0762 16.0059C14.4199 16.1934 13.8223 16.457 13.2832 16.7969C12.7559 17.125 12.3223 17.5234 11.9824 17.9922C11.6426 18.4492 11.4727 18.9473 11.4727 19.4863C11.4727 19.8613 11.5195 20.1602 11.6133 20.3828C11.7188 20.6055 11.8359 20.7754 11.9648 20.8926C12.0938 20.998 12.2227 21.0684 12.3516 21.1035C12.4922 21.127 12.5918 21.1387 12.6504 21.1387C12.9434 21.1387 13.1836 21.0918 13.3711 20.998C13.5586 20.8926 13.7285 20.7871 13.8809 20.6816C14.0332 20.5645 14.1738 20.459 14.3027 20.3652C14.4434 20.2598 14.6016 20.207 14.7773 20.207C14.918 20.207 15.0645 20.2422 15.2168 20.3125C15.3809 20.3711 15.5273 20.4707 15.6563 20.6113C15.7969 20.752 15.9141 20.9395 16.0078 21.1738C16.1016 21.3965 16.1484 21.6719 16.1484 22C16.1484 22.4688 16.0547 22.873 15.8672 23.2129C15.6914 23.5527 15.457 23.8398 15.1641 24.0742C14.8828 24.2969 14.5547 24.4668 14.1797 24.584C13.8164 24.6895 13.4531 24.7422 13.0898 24.7422C12.5273 24.7422 12.0176 24.6484 11.5605 24.4609C11.1152 24.2617 10.7344 23.9922 10.418 23.6523C10.1016 23.3125 9.86133 22.9141 9.69727 22.457C9.5332 22 9.45117 21.5137 9.45117 20.998C9.45117 20.0254 9.63281 19.1699 9.99609 18.4316C10.3594 17.6816 10.8691 17.0371 11.5254 16.498C12.1934 15.959 12.9902 15.5137 13.916 15.1621C14.8418 14.7988 15.8672 14.5117 16.9922 14.3008C18.1172 14.0898 19.3184 13.9434 20.5957 13.8613C21.8848 13.7676 23.2207 13.7207 24.6035 13.7207ZM44.2734 31.9316C44.2734 32.3066 44.3262 32.7168 44.4316 33.1621C44.5488 33.5957 44.7129 34.0352 44.9238 34.4805C45.1348 34.9258 45.3926 35.3535 45.6973 35.7637C46.0137 36.1621 46.3711 36.5195 46.7695 36.8359C47.1797 37.1523 47.6309 37.4043 48.123 37.5918C48.6152 37.7793 49.1543 37.873 49.7402 37.873C50.1504 37.873 50.5313 37.8262 50.8828 37.7324C51.2344 37.6387 51.5625 37.5098 51.8672 37.3457C52.1719 37.1816 52.4648 36.9941 52.7461 36.7832C53.0273 36.5605 53.3086 36.3262 53.5898 36.0801L54.0293 36.502C53.7598 36.8652 53.4141 37.2637 52.9922 37.6973C52.5703 38.1309 52.0605 38.541 51.4629 38.9277C50.8652 39.3027 50.168 39.6191 49.3711 39.877C48.5742 40.123 47.666 40.2461 46.6465 40.2461C45.627 40.2461 44.6309 40.0645 43.6582 39.7012C42.6973 39.3262 41.8418 38.7695 41.0918 38.0312C40.3418 37.293 39.7383 36.373 39.2813 35.2715C38.8359 34.1699 38.6133 32.8809 38.6133 31.4043C38.6133 30.3379 38.748 29.3594 39.0176 28.4688C39.2871 27.5781 39.6504 26.7754 40.1074 26.0605C40.5762 25.3457 41.1152 24.7188 41.7246 24.1797C42.3457 23.6406 42.9961 23.1953 43.6758 22.8438C44.3555 22.4805 45.0469 22.2109 45.75 22.0352C46.4648 21.8477 47.1504 21.7539 47.8066 21.7539C48.6738 21.7539 49.4297 21.8477 50.0742 22.0352C50.7188 22.2227 51.252 22.4746 51.6738 22.791C52.1074 23.1074 52.4297 23.4766 52.6406 23.8984C52.8516 24.3086 52.957 24.7422 52.957 25.1992C52.957 25.75 52.7988 26.248 52.4824 26.6934C52.166 27.127 51.7441 27.5078 51.2168 27.8359L44.2734 31.9316ZM47.8066 28.3633C47.959 28.2695 48.082 28.1816 48.1758 28.0996C48.2813 28.0059 48.3633 27.9004 48.4219 27.7832C48.4805 27.6543 48.5215 27.502 48.5449 27.3262C48.5801 27.1387 48.5977 26.9102 48.5977 26.6406C48.5977 26.3477 48.5625 26.0254 48.4922 25.6738C48.4336 25.3105 48.3281 24.9707 48.1758 24.6543C48.0234 24.3379 47.8301 24.0742 47.5957 23.8633C47.3613 23.6523 47.0801 23.5469 46.752 23.5469C46.3301 23.5469 45.9668 23.6758 45.6621 23.9336C45.3691 24.1797 45.123 24.502 44.9238 24.9004C44.7363 25.2988 44.584 25.7559 44.4668 26.2715C44.3613 26.7754 44.2793 27.2852 44.2207 27.8008C44.1621 28.3164 44.127 28.8145 44.1152 29.2949C44.1035 29.7637 44.0977 30.1621 44.0977 30.4902L47.8066 28.3633ZM65.0684 13.8613C64.7402 13.8613 64.4297 13.9316 64.1367 14.0723C63.8438 14.2129 63.5859 14.4414 63.3633 14.7578C63.1523 15.0625 62.9824 15.4551 62.8535 15.9355C62.7246 16.416 62.6602 16.9961 62.6602 17.6758V22H66.5098V23.2656H62.6602V37.1172C62.6602 38.7109 62.4492 40.1816 62.0273 41.5293C61.6172 42.877 60.9902 44.0371 60.1465 45.0098C59.3027 45.9941 58.248 46.7617 56.9824 47.3125C55.7168 47.8633 54.2402 48.1387 52.5527 48.1387C51.9551 48.1387 51.3809 48.0859 50.8301 47.9805C50.2793 47.8867 49.793 47.752 49.3711 47.5762C48.9492 47.4004 48.6152 47.1895 48.3691 46.9434C48.1113 46.709 47.9824 46.4453 47.9824 46.1523C47.9824 45.9414 48.0117 45.7246 48.0703 45.502C48.1289 45.291 48.2168 45.0977 48.334 44.9219C48.4512 44.7461 48.5977 44.5996 48.7734 44.4824C48.9375 44.377 49.1309 44.3242 49.3535 44.3242C49.4824 44.3242 49.5996 44.3887 49.7051 44.5176C49.7988 44.6465 49.8984 44.8047 50.0039 44.9922C50.1094 45.1797 50.2324 45.3848 50.373 45.6074C50.502 45.8418 50.6719 46.0527 50.8828 46.2402C51.0938 46.4277 51.3574 46.5859 51.6738 46.7148C51.9785 46.8438 52.3535 46.9082 52.7988 46.9082C53.3965 46.9082 53.9238 46.7852 54.3809 46.5391C54.8379 46.3047 55.2305 45.9766 55.5586 45.5547C55.8867 45.1328 56.1621 44.6348 56.3848 44.0605C56.6074 43.4863 56.7832 42.8711 56.9121 42.2148C57.041 41.5586 57.1289 40.873 57.1758 40.1582C57.2344 39.4434 57.2637 38.7285 57.2637 38.0137V23.2656H54.0293V22H57.2637V19.9434C57.2637 18.9121 57.3867 18.0156 57.6328 17.2539C57.8906 16.4805 58.2246 15.8242 58.6348 15.2852C59.0566 14.7461 59.5313 14.3066 60.0586 13.9668C60.5859 13.627 61.1191 13.3574 61.6582 13.1582C62.209 12.959 62.7422 12.8242 63.2578 12.7539C63.7734 12.6836 64.2246 12.6484 64.6113 12.6484C65.4434 12.6484 66.1816 12.7129 66.8262 12.8418C67.4707 12.959 68.0098 13.123 68.4434 13.334C68.877 13.5332 69.2051 13.7676 69.4277 14.0371C69.6504 14.3066 69.7617 14.582 69.7617 14.8633C69.7617 15.0742 69.7266 15.291 69.6563 15.5137C69.5977 15.7246 69.5098 15.9238 69.3926 16.1113C69.2754 16.2871 69.1289 16.4336 68.9531 16.5508C68.7891 16.6562 68.6016 16.709 68.3906 16.709C68.2617 16.709 68.1445 16.6387 68.0391 16.498C67.9336 16.3574 67.8223 16.1816 67.7051 15.9707C67.5879 15.7598 67.459 15.5312 67.3184 15.2852C67.1777 15.0391 67.002 14.8105 66.791 14.5996C66.5918 14.3887 66.3516 14.2129 66.0703 14.0723C65.7891 13.9316 65.4551 13.8613 65.0684 13.8613ZM83.4727 36.9414C83.4727 37.0469 83.4785 37.1641 83.4902 37.293C83.502 37.4102 83.5313 37.5273 83.5781 37.6445C83.625 37.75 83.6953 37.8379 83.7891 37.9082C83.8828 37.9785 84.0176 38.0137 84.1934 38.0137C84.416 38.0137 84.6152 37.9375 84.791 37.7852C84.9668 37.6211 85.1309 37.457 85.2832 37.293L85.7051 37.6621C85.5293 37.9082 85.3066 38.1836 85.0371 38.4883C84.7793 38.7812 84.4629 39.0625 84.0879 39.332C83.7129 39.6016 83.2852 39.8242 82.8047 40C82.3242 40.1875 81.7793 40.2812 81.1699 40.2812C80.6543 40.2812 80.2031 40.2109 79.8164 40.0703C79.4414 39.9414 79.1191 39.7656 78.8496 39.543C78.5918 39.3086 78.3984 39.0391 78.2695 38.7344C78.1406 38.418 78.0762 38.084 78.0762 37.7324V36.9414C77.4902 37.5742 76.875 38.1309 76.2305 38.6113C75.9492 38.8223 75.6504 39.0273 75.334 39.2266C75.0176 39.4258 74.6895 39.6074 74.3496 39.7715C74.0098 39.9238 73.6582 40.0469 73.2949 40.1406C72.9316 40.2344 72.5684 40.2812 72.2051 40.2812C71.502 40.2812 70.8984 40.1582 70.3945 39.9121C69.9023 39.6543 69.5039 39.3203 69.1992 38.9102C68.8945 38.5 68.6719 38.0371 68.5313 37.5215C68.3906 37.0059 68.3203 36.4902 68.3203 35.9746V25.0938C68.3203 24.9883 68.3145 24.877 68.3027 24.7598C68.291 24.6309 68.2617 24.5137 68.2148 24.4082C68.168 24.291 68.0977 24.1973 68.0039 24.127C67.9102 24.0566 67.7754 24.0215 67.5996 24.0215C67.3887 24.0215 67.1895 24.1035 67.002 24.2676C66.8262 24.4199 66.668 24.5781 66.5273 24.7422L66.0879 24.373C66.2637 24.127 66.4805 23.8574 66.7383 23.5645C67.0078 23.2598 67.3301 22.9727 67.7051 22.7031C68.0801 22.4336 68.5078 22.2109 68.9883 22.0352C69.4805 21.8477 70.0254 21.7539 70.623 21.7539C71.1387 21.7539 71.5898 21.8242 71.9766 21.9648C72.3633 22.0938 72.6855 22.2754 72.9434 22.5098C73.2012 22.7324 73.3945 23.002 73.5234 23.3184C73.6523 23.623 73.7168 23.9512 73.7168 24.3027V36.0449C73.7168 36.209 73.7402 36.3789 73.7871 36.5547C73.8457 36.7188 73.9219 36.8711 74.0156 37.0117C74.1211 37.1523 74.25 37.2695 74.4023 37.3633C74.5547 37.4453 74.7363 37.4863 74.9473 37.4863C75.2871 37.4863 75.627 37.3984 75.9668 37.2227C76.3066 37.0469 76.6172 36.8418 76.8984 36.6074C77.1797 36.3613 77.4199 36.1211 77.6191 35.8867C77.8301 35.6523 77.9824 35.4766 78.0762 35.3594V25.0938C78.0762 24.9883 78.0703 24.877 78.0586 24.7598C78.0469 24.6309 78.0176 24.5137 77.9707 24.4082C77.9238 24.291 77.8535 24.1973 77.7598 24.127C77.666 24.0566 77.5313 24.0215 77.3555 24.0215C77.1445 24.0215 76.9453 24.1035 76.7578 24.2676C76.582 24.4199 76.4238 24.5781 76.2832 24.7422L75.8438 24.373C76.0195 24.127 76.2363 23.8574 76.4941 23.5645C76.7637 23.2598 77.0859 22.9727 77.4609 22.7031C77.8359 22.4336 78.2637 22.2109 78.7441 22.0352C79.2363 21.8477 79.7813 21.7539 80.3789 21.7539C80.8945 21.7539 81.3457 21.8242 81.7324 21.9648C82.1191 22.0938 82.4414 22.2754 82.6992 22.5098C82.957 22.7324 83.1504 23.002 83.2793 23.3184C83.4082 23.623 83.4727 23.9512 83.4727 24.3027V36.9414ZM72.8555 19.4863L77.6367 14.8633C77.8359 14.6875 78.0469 14.5469 78.2695 14.4414C78.4922 14.3242 78.7148 14.2656 78.9375 14.2656C79.1484 14.2656 79.3477 14.3184 79.5352 14.4238C79.7227 14.5176 79.8867 14.6465 80.0273 14.8105C80.168 14.9746 80.2793 15.1621 80.3613 15.373C80.4434 15.5723 80.4844 15.7773 80.4844 15.9883C80.4844 16.293 80.3789 16.5625 80.168 16.7969C79.9688 17.0195 79.7285 17.1953 79.4473 17.3242L73.207 19.9785L72.8555 19.4863ZM87.0059 28.9434C87.0059 27.748 87.2109 26.7051 87.6211 25.8145C88.043 24.9121 88.6055 24.1621 89.3086 23.5645C90.0117 22.9551 90.8262 22.5039 91.752 22.2109C92.6777 21.9062 93.6504 21.7539 94.6699 21.7539C95.6895 21.7539 96.6563 21.8887 97.5703 22.1582C98.4844 22.4277 99.293 22.8438 99.9961 23.4062C100.219 23.0664 100.4 22.709 100.541 22.334C100.682 21.959 100.752 21.584 100.752 21.209C100.752 20.7168 100.617 20.3242 100.348 20.0312C100.09 19.7383 99.7559 19.5918 99.3457 19.5918V19.082C99.6035 19 99.832 18.9297 100.031 18.8711C100.23 18.8008 100.412 18.748 100.576 18.7129C100.74 18.6777 100.904 18.6543 101.068 18.6426C101.232 18.6191 101.414 18.6074 101.613 18.6074C102.164 18.6074 102.586 18.7773 102.879 19.1172C103.172 19.457 103.318 19.9258 103.318 20.5234C103.318 20.875 103.236 21.2266 103.072 21.5781C102.908 21.918 102.703 22.2461 102.457 22.5625C102.211 22.8789 101.936 23.1777 101.631 23.459C101.338 23.7402 101.057 23.9863 100.787 24.1973C101.279 24.7598 101.66 25.416 101.93 26.166C102.199 26.916 102.334 27.7715 102.334 28.7324C102.334 29.9395 102.123 31.0059 101.701 31.9316C101.291 32.8574 100.734 33.6367 100.031 34.2695C99.3281 34.9023 98.5137 35.3828 97.5879 35.7109C96.6621 36.0273 95.6895 36.1855 94.6699 36.1855C94.0723 36.1855 93.4863 36.1328 92.9121 36.0273C92.3379 35.9219 91.7988 35.7695 91.2949 35.5703C91.1074 35.7109 90.9434 35.8867 90.8027 36.0977C90.6738 36.3086 90.6094 36.543 90.6094 36.8008C90.6094 37.2344 90.7969 37.5566 91.1719 37.7676C91.5469 37.9785 92.0449 38.1309 92.666 38.2246C93.2871 38.3184 93.9902 38.377 94.7754 38.4004C95.5605 38.4238 96.3633 38.4648 97.1836 38.5234C98.0156 38.5703 98.8242 38.6699 99.6094 38.8223C100.395 38.9629 101.098 39.2031 101.719 39.543C102.34 39.8711 102.838 40.3223 103.213 40.8965C103.588 41.4707 103.775 42.2148 103.775 43.1289C103.775 43.7969 103.635 44.3945 103.354 44.9219C103.072 45.4609 102.691 45.9297 102.211 46.3281C101.742 46.7383 101.191 47.084 100.559 47.3652C99.9375 47.6582 99.2754 47.8926 98.5723 48.0684C97.8809 48.2559 97.1719 48.3906 96.4453 48.4727C95.7305 48.5547 95.0449 48.5957 94.3887 48.5957C93.1934 48.5957 92.1152 48.5312 91.1543 48.4023C90.2051 48.2852 89.3965 48.0977 88.7285 47.8398C88.0605 47.582 87.5449 47.248 87.1816 46.8379C86.8184 46.4277 86.6367 45.9355 86.6367 45.3613C86.6367 44.9512 86.7305 44.5703 86.918 44.2188C87.1055 43.8789 87.3516 43.5625 87.6563 43.2695C87.9727 42.9883 88.3242 42.7305 88.7109 42.4961C89.0977 42.2734 89.4902 42.0625 89.8887 41.8633C89.3027 41.6172 88.8105 41.2422 88.4121 40.7383C88.0254 40.2461 87.832 39.5898 87.832 38.7695C87.832 38.3359 87.9082 37.9375 88.0605 37.5742C88.2129 37.1992 88.4063 36.8594 88.6406 36.5547C88.8867 36.2383 89.1504 35.957 89.4316 35.7109C89.7246 35.4531 90.0059 35.2363 90.2754 35.0605C89.7949 34.7793 89.3496 34.4395 88.9395 34.041C88.541 33.6309 88.1953 33.1738 87.9023 32.6699C87.6211 32.1543 87.3984 31.5859 87.2344 30.9648C87.082 30.3438 87.0059 29.6699 87.0059 28.9434ZM97.043 28.8027C97.043 28.123 97.0078 27.4609 96.9375 26.8164C96.8672 26.1719 96.7441 25.5977 96.5684 25.0938C96.3926 24.5898 96.1523 24.1855 95.8477 23.8809C95.543 23.5645 95.1504 23.4062 94.6699 23.4062C94.1895 23.4062 93.7969 23.5703 93.4922 23.8984C93.1875 24.2148 92.9473 24.6367 92.7715 25.1641C92.5957 25.6797 92.4727 26.2715 92.4023 26.9395C92.332 27.5957 92.2969 28.2637 92.2969 28.9434C92.2969 29.6348 92.332 30.3145 92.4023 30.9824C92.4727 31.6504 92.5957 32.248 92.7715 32.7754C92.9473 33.3027 93.1875 33.7305 93.4922 34.0586C93.7969 34.375 94.1895 34.5332 94.6699 34.5332C95.1504 34.5332 95.543 34.3633 95.8477 34.0234C96.1523 33.6836 96.3926 33.2441 96.5684 32.7051C96.7441 32.1543 96.8672 31.5391 96.9375 30.8594C97.0078 30.1797 97.043 29.4941 97.043 28.8027ZM99.7148 44.5352C99.7148 44.1602 99.5684 43.8496 99.2754 43.6035C98.9824 43.3691 98.5957 43.1758 98.1152 43.0234C97.6465 42.8828 97.1074 42.7715 96.498 42.6895C95.9004 42.6191 95.291 42.5605 94.6699 42.5137C94.0488 42.4785 93.4453 42.4434 92.8594 42.4082C92.2734 42.373 91.7637 42.3262 91.3301 42.2676C91.084 42.4434 90.8438 42.6309 90.6094 42.8301C90.3867 43.041 90.1875 43.2578 90.0117 43.4805C89.8477 43.7148 89.7129 43.9551 89.6074 44.2012C89.502 44.459 89.4492 44.7168 89.4492 44.9746C89.4492 45.4199 89.5781 45.7891 89.8359 46.082C90.0938 46.3867 90.4395 46.627 90.873 46.8027C91.3184 46.9785 91.8281 47.1016 92.4023 47.1719C92.9883 47.2422 93.6035 47.2773 94.248 47.2773C95.1035 47.2773 95.8711 47.2012 96.5508 47.0488C97.2305 46.9082 97.8047 46.709 98.2734 46.4512C98.7422 46.2051 99.0996 45.918 99.3457 45.5898C99.5918 45.2617 99.7148 44.9102 99.7148 44.5352ZM111.721 38.418C111.721 38.5703 111.691 38.7578 111.633 38.9805C111.586 39.1914 111.463 39.3965 111.264 39.5957C111.076 39.7832 110.801 39.9414 110.438 40.0703C110.074 40.2109 109.582 40.2812 108.961 40.2812C108.34 40.2812 107.854 40.2051 107.502 40.0527C107.15 39.9121 106.887 39.7422 106.711 39.543C106.535 39.3438 106.424 39.1387 106.377 38.9277C106.342 38.7168 106.324 38.5469 106.324 38.418V24.8477C106.324 24.5078 106.242 24.2148 106.078 23.9688C105.926 23.7109 105.662 23.582 105.287 23.582C105.088 23.582 104.918 23.6172 104.777 23.6875C104.637 23.7578 104.484 23.8574 104.32 23.9863L103.951 23.5469C104.221 23.3242 104.52 23.1074 104.848 22.8965C105.188 22.6738 105.551 22.4805 105.938 22.3164C106.324 22.1523 106.74 22.0176 107.186 21.9121C107.631 21.8066 108.1 21.7539 108.592 21.7539C109.354 21.7539 109.945 21.8594 110.367 22.0703C110.789 22.2695 111.1 22.5215 111.299 22.8262C111.498 23.1191 111.615 23.4355 111.65 23.7754C111.697 24.1152 111.721 24.4141 111.721 24.6719V38.418ZM105.779 17.7461C105.779 17.418 105.85 17.1074 105.99 16.8145C106.143 16.5098 106.348 16.2461 106.605 16.0234C106.875 15.8008 107.18 15.625 107.52 15.4961C107.871 15.3672 108.252 15.3027 108.662 15.3027C109.061 15.3027 109.43 15.3672 109.77 15.4961C110.121 15.625 110.426 15.8008 110.684 16.0234C110.941 16.2461 111.141 16.5098 111.281 16.8145C111.434 17.1074 111.51 17.418 111.51 17.7461C111.51 18.0859 111.434 18.4023 111.281 18.6953C111.141 18.9883 110.941 19.2461 110.684 19.4688C110.426 19.6797 110.121 19.8496 109.77 19.9785C109.43 20.1074 109.061 20.1719 108.662 20.1719C108.252 20.1719 107.871 20.1074 107.52 19.9785C107.18 19.8496 106.875 19.6797 106.605 19.4688C106.348 19.2461 106.143 18.9883 105.99 18.6953C105.85 18.4023 105.779 18.0859 105.779 17.7461ZM115.043 31C115.043 29.4648 115.266 28.123 115.711 26.9746C116.156 25.8145 116.748 24.8477 117.486 24.0742C118.236 23.3008 119.104 22.7207 120.088 22.334C121.072 21.9473 122.104 21.7539 123.182 21.7539C124.26 21.7539 125.291 21.9355 126.275 22.2988C127.26 22.6504 128.121 23.1953 128.859 23.9336C129.609 24.6719 130.207 25.6094 130.652 26.7461C131.098 27.8711 131.32 29.207 131.32 30.7539C131.32 32.2891 131.098 33.6484 130.652 34.832C130.207 36.0156 129.609 37.0117 128.859 37.8203C128.121 38.6289 127.26 39.2441 126.275 39.666C125.291 40.0762 124.26 40.2812 123.182 40.2812C122.104 40.2812 121.072 40.0879 120.088 39.7012C119.104 39.3027 118.236 38.7168 117.486 37.9434C116.748 37.1699 116.156 36.2031 115.711 35.043C115.266 33.8828 115.043 32.5352 115.043 31ZM125.854 30.8242C125.854 29.8867 125.818 28.9844 125.748 28.1172C125.689 27.2383 125.566 26.459 125.379 25.7793C125.191 25.0996 124.922 24.5605 124.57 24.1621C124.219 23.752 123.756 23.5469 123.182 23.5469C122.607 23.5469 122.145 23.7637 121.793 24.1973C121.441 24.6191 121.172 25.1816 120.984 25.8848C120.797 26.5762 120.674 27.3672 120.615 28.2578C120.557 29.1484 120.527 30.0625 120.527 31C120.527 31.9375 120.557 32.8574 120.615 33.7598C120.674 34.6504 120.797 35.4473 120.984 36.1504C121.172 36.8535 121.441 37.4219 121.793 37.8555C122.145 38.2773 122.607 38.4883 123.182 38.4883C123.756 38.4883 124.219 38.2656 124.57 37.8203C124.922 37.375 125.191 36.7891 125.379 36.0625C125.566 35.3359 125.689 34.5156 125.748 33.6016C125.818 32.6875 125.854 31.7617 125.854 30.8242ZM33.3398 60.2324C33.0234 60.2324 32.6543 60.2969 32.2324 60.4258C31.8105 60.5547 31.377 60.8008 30.9316 61.1641C30.498 61.5156 30.0703 62.0137 29.6484 62.6582C29.2266 63.3027 28.8457 64.1406 28.5059 65.1719C28.1777 66.1914 27.9082 67.4336 27.6973 68.8984C27.498 70.3633 27.3984 72.0918 27.3984 74.084C27.3984 75.9824 27.498 77.6289 27.6973 79.0234C27.9082 80.418 28.1836 81.6074 28.5234 82.5918C28.875 83.5645 29.2734 84.3613 29.7188 84.9824C30.1641 85.6035 30.6328 86.084 31.125 86.4238C31.6172 86.7754 32.1094 87.0156 32.6016 87.1445C33.0938 87.2734 33.5566 87.3379 33.9902 87.3379C34.4473 87.3379 34.9102 87.2793 35.3789 87.1621C35.8477 87.0449 36.3047 86.875 36.75 86.6523C37.207 86.4297 37.6406 86.1602 38.0508 85.8438C38.4727 85.5273 38.8594 85.1641 39.2109 84.7539L40.002 85.5449C39.6504 85.9785 39.2285 86.418 38.7363 86.8633C38.2441 87.3203 37.6699 87.7305 37.0137 88.0938C36.3691 88.4688 35.6426 88.7734 34.834 89.0078C34.0254 89.2422 33.1289 89.3594 32.1445 89.3594C30.6094 89.3594 29.1797 89.0664 27.8555 88.4805C26.543 87.8945 25.3945 86.9805 24.4102 85.7383C23.4375 84.5078 22.6699 82.9258 22.1074 80.9922C21.5566 79.0586 21.2813 76.7441 21.2813 74.0488C21.2813 71.5176 21.5742 69.2969 22.1602 67.3867C22.7461 65.4766 23.543 63.8828 24.5508 62.6055C25.5586 61.3164 26.7422 60.3496 28.1016 59.7051C29.4609 59.0488 30.9082 58.7207 32.4434 58.7207C33.4629 58.7207 34.3887 58.8203 35.2207 59.0195C36.0645 59.207 36.791 59.4883 37.4004 59.8633C38.0098 60.2266 38.4785 60.6836 38.8066 61.2344C39.1465 61.7734 39.3164 62.3887 39.3164 63.0801C39.3164 63.3965 39.2637 63.7305 39.1582 64.082C39.0527 64.4219 38.8887 64.7383 38.666 65.0312C38.4551 65.3125 38.1914 65.5469 37.875 65.7344C37.5586 65.9102 37.1895 65.998 36.7676 65.998C36.3926 65.998 36.0996 65.916 35.8887 65.752C35.6895 65.5879 35.5371 65.3711 35.4316 65.1016C35.3379 64.832 35.2734 64.5273 35.2383 64.1875C35.2148 63.8359 35.1973 63.4785 35.1855 63.1152C35.1738 62.752 35.1445 62.4004 35.0977 62.0605C35.0625 61.709 34.9805 61.3984 34.8516 61.1289C34.7344 60.8594 34.5586 60.6426 34.3242 60.4785C34.0898 60.3145 33.7617 60.2324 33.3398 60.2324ZM49.5645 75.8945C49.5645 75.6016 49.4707 75.3789 49.2832 75.2266C49.0957 75.0742 48.8555 74.998 48.5625 74.998C48.1523 74.998 47.7598 75.0918 47.3848 75.2793C47.0215 75.4668 46.6992 75.7422 46.418 76.1055C46.1367 76.4688 45.9141 76.9199 45.75 77.459C45.5859 77.9863 45.5039 78.6016 45.5039 79.3047C45.5039 79.9844 45.5508 80.5469 45.6445 80.9922C45.75 81.4375 45.8848 81.7949 46.0488 82.0645C46.2246 82.3223 46.4238 82.5039 46.6465 82.6094C46.8691 82.7148 47.1035 82.7676 47.3496 82.7676C47.6543 82.7676 47.9414 82.6914 48.2109 82.5391C48.4805 82.375 48.7148 82.1699 48.9141 81.9238C49.1133 81.6777 49.2715 81.4023 49.3887 81.0977C49.5059 80.793 49.5645 80.4883 49.5645 80.1836V75.8945ZM46.7695 68.1953C46.3711 68.1953 46.002 68.2422 45.6621 68.3359C45.3223 68.4297 45.0293 68.5469 44.7832 68.6875C44.5371 68.8281 44.3438 68.9863 44.2031 69.1621C44.0625 69.3262 43.9922 69.4844 43.9922 69.6367C43.9922 69.8125 44.0801 69.9414 44.2559 70.0234C44.4434 70.0938 44.6484 70.1816 44.8711 70.2871C45.0938 70.3809 45.293 70.5215 45.4688 70.709C45.6563 70.8848 45.75 71.1602 45.75 71.5352C45.75 71.7812 45.6973 72.0098 45.5918 72.2207C45.498 72.4199 45.3633 72.6016 45.1875 72.7656C45.0234 72.918 44.8242 73.041 44.5898 73.1348C44.3672 73.2168 44.1328 73.2578 43.8867 73.2578C43.2305 73.2578 42.6973 73.0352 42.2871 72.5898C41.8887 72.1445 41.6895 71.5527 41.6895 70.8145C41.6895 70.0996 41.877 69.4902 42.252 68.9863C42.627 68.4707 43.1133 68.0488 43.7109 67.7207C44.3203 67.3926 45.0059 67.1523 45.7676 67C46.5293 66.8359 47.291 66.7539 48.0527 66.7539C48.9668 66.7539 49.8398 66.8535 50.6719 67.0527C51.5039 67.252 52.2363 67.5684 52.8691 68.002C53.5137 68.4355 54.0234 68.9863 54.3984 69.6543C54.7852 70.3223 54.9785 71.1309 54.9785 72.0801V82.0117C54.9785 82.1172 54.9844 82.2344 54.9961 82.3633C55.0078 82.4922 55.0371 82.6094 55.084 82.7148C55.1309 82.8203 55.2012 82.9082 55.2949 82.9785C55.3887 83.0488 55.5234 83.084 55.6992 83.084C55.9102 83.084 56.1035 83.0078 56.2793 82.8555C56.4668 82.6914 56.6309 82.5273 56.7715 82.3633L57.2109 82.7324C57.0352 82.9785 56.8242 83.248 56.5781 83.541C56.332 83.834 56.0332 84.1094 55.6816 84.3672C55.3301 84.625 54.9199 84.8418 54.4512 85.0176C53.9824 85.1934 53.4492 85.2812 52.8516 85.2812C52.1133 85.2812 51.457 85.0645 50.8828 84.6309C50.3086 84.1855 49.9336 83.5059 49.7578 82.5918C49.3828 83.0957 48.9902 83.5176 48.5801 83.8574C48.1816 84.1973 47.7715 84.4727 47.3496 84.6836C46.9277 84.8945 46.5 85.0469 46.0664 85.1406C45.6445 85.2344 45.2168 85.2812 44.7832 85.2812C44.2207 85.2812 43.6758 85.1934 43.1484 85.0176C42.6211 84.8418 42.1465 84.5664 41.7246 84.1914C41.3145 83.8047 40.9805 83.3066 40.7227 82.6973C40.4766 82.0879 40.3535 81.3438 40.3535 80.4648C40.3535 79.3984 40.5645 78.5254 40.9863 77.8457C41.4082 77.166 41.959 76.5977 42.6387 76.1406C43.3301 75.6719 44.1094 75.2734 44.9766 74.9453C45.8555 74.6172 46.752 74.2715 47.666 73.9082C48.3457 73.6387 48.8379 73.2402 49.1426 72.7129C49.459 72.1738 49.6172 71.623 49.6172 71.0605C49.6172 70.1934 49.3594 69.502 48.8438 68.9863C48.3398 68.459 47.6484 68.1953 46.7695 68.1953ZM65.2266 68.1602C64.957 68.1602 64.6992 68.1953 64.4531 68.2656C64.2188 68.3359 64.0078 68.4531 63.8203 68.6172C63.6328 68.7695 63.4863 68.9688 63.3809 69.2148C63.2754 69.4492 63.2227 69.7305 63.2227 70.0586C63.2227 70.5156 63.3867 70.9727 63.7148 71.4297C64.0547 71.875 64.4707 72.3438 64.9629 72.8359C65.4668 73.3164 66.0059 73.8203 66.5801 74.3477C67.166 74.8633 67.7051 75.4141 68.1973 76C68.7012 76.5742 69.1172 77.1895 69.4453 77.8457C69.7852 78.502 69.9551 79.2051 69.9551 79.9551C69.9551 80.7988 69.8086 81.5488 69.5156 82.2051C69.2344 82.8613 68.8242 83.418 68.2852 83.875C67.7578 84.332 67.1133 84.6836 66.3516 84.9297C65.6016 85.1641 64.7637 85.2812 63.8379 85.2812C63.0293 85.2812 62.2969 85.1699 61.6406 84.9473C60.9844 84.7129 60.3984 84.4316 59.8828 84.1035C59.3789 83.7637 58.9453 83.4062 58.582 83.0312C58.2188 82.6562 57.9375 82.3164 57.7383 82.0117L58.3535 81.5723C58.5059 81.748 58.6992 81.9414 58.9336 82.1523C59.168 82.3516 59.4258 82.5391 59.707 82.7148C60 82.8906 60.3105 83.0371 60.6387 83.1543C60.9668 83.2598 61.3008 83.3125 61.6406 83.3125C62.4844 83.3125 63.1758 83.1133 63.7148 82.7148C64.2539 82.3047 64.5234 81.7012 64.5234 80.9043C64.5234 80.459 64.377 80.002 64.084 79.5332C63.791 79.0527 63.4219 78.5605 62.9766 78.0566C62.5313 77.5527 62.0508 77.0312 61.5352 76.4922C61.0195 75.9531 60.5391 75.3965 60.0938 74.8223C59.6484 74.248 59.2793 73.6562 58.9863 73.0469C58.6934 72.4375 58.5469 71.8047 58.5469 71.1484C58.5469 70.4102 58.6934 69.7656 58.9863 69.2148C59.291 68.6641 59.6895 68.207 60.1816 67.8438C60.6855 67.4805 61.2539 67.2109 61.8867 67.0352C62.5313 66.8477 63.1934 66.7539 63.873 66.7539C64.6582 66.7539 65.373 66.8242 66.0176 66.9648C66.6621 67.1055 67.2129 67.3223 67.6699 67.6152C68.1387 67.8965 68.4961 68.2539 68.7422 68.6875C69 69.1211 69.1289 69.625 69.1289 70.1992C69.1289 70.6445 68.9824 71.0312 68.6895 71.3594C68.3965 71.6875 67.9863 71.8516 67.459 71.8516C66.9551 71.8516 66.5684 71.7461 66.2988 71.5352C66.041 71.3125 65.9121 71.0137 65.9121 70.6387C65.9121 70.3926 65.9707 70.1992 66.0879 70.0586C66.2168 69.918 66.3574 69.8066 66.5098 69.7246C66.6621 69.6309 66.7969 69.5547 66.9141 69.4961C67.043 69.4258 67.1074 69.3379 67.1074 69.2324C67.1074 68.9043 66.9316 68.6465 66.5801 68.459C66.2285 68.2598 65.7773 68.1602 65.2266 68.1602ZM77.7598 76.9316C77.7598 77.3066 77.8125 77.7168 77.918 78.1621C78.0352 78.5957 78.1992 79.0352 78.4102 79.4805C78.6211 79.9258 78.8789 80.3535 79.1836 80.7637C79.5 81.1621 79.8574 81.5195 80.2559 81.8359C80.666 82.1523 81.1172 82.4043 81.6094 82.5918C82.1016 82.7793 82.6406 82.873 83.2266 82.873C83.6367 82.873 84.0176 82.8262 84.3691 82.7324C84.7207 82.6387 85.0488 82.5098 85.3535 82.3457C85.6582 82.1816 85.9512 81.9941 86.2324 81.7832C86.5137 81.5605 86.7949 81.3262 87.0762 81.0801L87.5156 81.502C87.2461 81.8652 86.9004 82.2637 86.4785 82.6973C86.0566 83.1309 85.5469 83.541 84.9492 83.9277C84.3516 84.3027 83.6543 84.6191 82.8574 84.877C82.0605 85.123 81.1523 85.2461 80.1328 85.2461C79.1133 85.2461 78.1172 85.0645 77.1445 84.7012C76.1836 84.3262 75.3281 83.7695 74.5781 83.0312C73.8281 82.293 73.2246 81.373 72.7676 80.2715C72.3223 79.1699 72.0996 77.8809 72.0996 76.4043C72.0996 75.3379 72.2344 74.3594 72.5039 73.4688C72.7734 72.5781 73.1367 71.7754 73.5938 71.0605C74.0625 70.3457 74.6016 69.7188 75.2109 69.1797C75.832 68.6406 76.4824 68.1953 77.1621 67.8438C77.8418 67.4805 78.5332 67.2109 79.2363 67.0352C79.9512 66.8477 80.6367 66.7539 81.293 66.7539C82.1602 66.7539 82.916 66.8477 83.5605 67.0352C84.2051 67.2227 84.7383 67.4746 85.1602 67.791C85.5938 68.1074 85.916 68.4766 86.127 68.8984C86.3379 69.3086 86.4434 69.7422 86.4434 70.1992C86.4434 70.75 86.2852 71.248 85.9688 71.6934C85.6523 72.127 85.2305 72.5078 84.7031 72.8359L77.7598 76.9316ZM81.293 73.3633C81.4453 73.2695 81.5684 73.1816 81.6621 73.0996C81.7676 73.0059 81.8496 72.9004 81.9082 72.7832C81.9668 72.6543 82.0078 72.502 82.0313 72.3262C82.0664 72.1387 82.084 71.9102 82.084 71.6406C82.084 71.3477 82.0488 71.0254 81.9785 70.6738C81.9199 70.3105 81.8145 69.9707 81.6621 69.6543C81.5098 69.3379 81.3164 69.0742 81.082 68.8633C80.8477 68.6523 80.5664 68.5469 80.2383 68.5469C79.8164 68.5469 79.4531 68.6758 79.1484 68.9336C78.8555 69.1797 78.6094 69.502 78.4102 69.9004C78.2227 70.2988 78.0703 70.7559 77.9531 71.2715C77.8477 71.7754 77.7656 72.2852 77.707 72.8008C77.6484 73.3164 77.6133 73.8145 77.6016 74.2949C77.5898 74.7637 77.584 75.1621 77.584 75.4902L81.293 73.3633ZM95.4961 83.418C95.4961 83.5703 95.4668 83.7578 95.4082 83.9805C95.3613 84.1914 95.2383 84.3965 95.0391 84.5957C94.8516 84.7832 94.5762 84.9414 94.2129 85.0703C93.8496 85.2109 93.3574 85.2812 92.7363 85.2812C92.1152 85.2812 91.6289 85.2051 91.2773 85.0527C90.9258 84.9121 90.6621 84.7422 90.4863 84.543C90.3105 84.3438 90.1992 84.1387 90.1523 83.9277C90.1172 83.7168 90.0996 83.5469 90.0996 83.418V69.8477C90.0996 69.5078 90.0176 69.2148 89.8535 68.9688C89.7012 68.7109 89.4375 68.582 89.0625 68.582C88.8633 68.582 88.6934 68.6172 88.5527 68.6875C88.4121 68.7578 88.2598 68.8574 88.0957 68.9863L87.7266 68.5469C87.9961 68.3242 88.2949 68.1074 88.623 67.8965C88.9629 67.6738 89.3262 67.4805 89.7129 67.3164C90.0996 67.1523 90.5156 67.0176 90.9609 66.9121C91.4063 66.8066 91.875 66.7539 92.3672 66.7539C93.1289 66.7539 93.7207 66.8594 94.1426 67.0703C94.5645 67.2695 94.875 67.5215 95.0742 67.8262C95.2734 68.1191 95.3906 68.4355 95.4258 68.7754C95.4727 69.1152 95.4961 69.4141 95.4961 69.6719V83.418ZM89.5547 62.7461C89.5547 62.418 89.625 62.1074 89.7656 61.8145C89.918 61.5098 90.123 61.2461 90.3809 61.0234C90.6504 60.8008 90.9551 60.625 91.2949 60.4961C91.6465 60.3672 92.0273 60.3027 92.4375 60.3027C92.8359 60.3027 93.2051 60.3672 93.5449 60.4961C93.8965 60.625 94.2012 60.8008 94.459 61.0234C94.7168 61.2461 94.916 61.5098 95.0566 61.8145C95.209 62.1074 95.2852 62.418 95.2852 62.7461C95.2852 63.0859 95.209 63.4023 95.0566 63.6953C94.916 63.9883 94.7168 64.2461 94.459 64.4688C94.2012 64.6797 93.8965 64.8496 93.5449 64.9785C93.2051 65.1074 92.8359 65.1719 92.4375 65.1719C92.0273 65.1719 91.6465 65.1074 91.2949 64.9785C90.9551 64.8496 90.6504 64.6797 90.3809 64.4688C90.123 64.2461 89.918 63.9883 89.7656 63.6953C89.625 63.4023 89.5547 63.0859 89.5547 62.7461ZM105.551 70.4629C105.996 69.7832 106.471 69.168 106.975 68.6172C107.186 68.3828 107.414 68.1543 107.66 67.9316C107.906 67.709 108.158 67.5098 108.416 67.334C108.686 67.1582 108.961 67.0176 109.242 66.9121C109.523 66.8066 109.805 66.7539 110.086 66.7539C110.684 66.7539 111.152 66.9355 111.492 67.2988C111.832 67.6504 112.002 68.1484 112.002 68.793C112.002 69.1914 111.967 69.5781 111.896 69.9531C111.838 70.3164 111.715 70.7617 111.527 71.2891H111.035C110.965 70.9258 110.801 70.627 110.543 70.3926C110.285 70.1465 109.91 70.0234 109.418 70.0234C109.055 70.0234 108.697 70.0938 108.346 70.2344C107.994 70.3633 107.648 70.5273 107.309 70.7266C106.98 70.9258 106.664 71.1426 106.359 71.377C106.066 71.6113 105.797 71.834 105.551 72.0449V83.4531C105.551 83.6055 105.527 83.7871 105.48 83.998C105.434 84.209 105.316 84.4082 105.129 84.5957C104.953 84.7832 104.684 84.9414 104.32 85.0703C103.969 85.2109 103.482 85.2812 102.861 85.2812C102.24 85.2812 101.748 85.2051 101.385 85.0527C101.033 84.9121 100.764 84.7422 100.576 84.543C100.389 84.3438 100.271 84.1387 100.225 83.9277C100.178 83.7168 100.154 83.5469 100.154 83.418V69.8477C100.154 69.5078 100.072 69.2148 99.9082 68.9688C99.7559 68.7109 99.4922 68.582 99.1172 68.582C98.918 68.582 98.748 68.6172 98.6074 68.6875C98.4668 68.7578 98.3145 68.8574 98.1504 68.9863L97.7813 68.5469C98.0508 68.3242 98.3496 68.1074 98.6777 67.8965C99.0176 67.6738 99.3809 67.4805 99.7676 67.3164C100.154 67.1523 100.57 67.0176 101.016 66.9121C101.461 66.8066 101.93 66.7539 102.422 66.7539C102.926 66.7539 103.354 66.8242 103.705 66.9648C104.068 67.0938 104.361 67.2695 104.584 67.4922C104.818 67.7031 105 67.9434 105.129 68.2129C105.258 68.4824 105.352 68.7578 105.41 69.0391C105.48 69.3086 105.521 69.5723 105.533 69.8301C105.545 70.0762 105.551 70.2871 105.551 70.4629ZM112.775 76C112.775 74.4648 112.998 73.123 113.443 71.9746C113.889 70.8145 114.48 69.8477 115.219 69.0742C115.969 68.3008 116.836 67.7207 117.82 67.334C118.805 66.9473 119.836 66.7539 120.914 66.7539C121.992 66.7539 123.023 66.9355 124.008 67.2988C124.992 67.6504 125.854 68.1953 126.592 68.9336C127.342 69.6719 127.939 70.6094 128.385 71.7461C128.83 72.8711 129.053 74.207 129.053 75.7539C129.053 77.2891 128.83 78.6484 128.385 79.832C127.939 81.0156 127.342 82.0117 126.592 82.8203C125.854 83.6289 124.992 84.2441 124.008 84.666C123.023 85.0762 121.992 85.2812 120.914 85.2812C119.836 85.2812 118.805 85.0879 117.82 84.7012C116.836 84.3027 115.969 83.7168 115.219 82.9434C114.48 82.1699 113.889 81.2031 113.443 80.043C112.998 78.8828 112.775 77.5352 112.775 76ZM123.586 75.8242C123.586 74.8867 123.551 73.9844 123.48 73.1172C123.422 72.2383 123.299 71.459 123.111 70.7793C122.924 70.0996 122.654 69.5605 122.303 69.1621C121.951 68.752 121.488 68.5469 120.914 68.5469C120.34 68.5469 119.877 68.7637 119.525 69.1973C119.174 69.6191 118.904 70.1816 118.717 70.8848C118.529 71.5762 118.406 72.3672 118.348 73.2578C118.289 74.1484 118.26 75.0625 118.26 76C118.26 76.9375 118.289 77.8574 118.348 78.7598C118.406 79.6504 118.529 80.4473 118.717 81.1504C118.904 81.8535 119.174 82.4219 119.525 82.8555C119.877 83.2773 120.34 83.4883 120.914 83.4883C121.488 83.4883 121.951 83.2656 122.303 82.8203C122.654 82.375 122.924 81.7891 123.111 81.0625C123.299 80.3359 123.422 79.5156 123.48 78.6016C123.551 77.6875 123.586 76.7617 123.586 75.8242Z" fill="white"/>
</g>
<defs>
<filter id="filter0_d" x="5.45117" y="12.6484" width="129.869" height="84.7109" filterUnits="userSpaceOnUse" color-interpolation-filters="sRGB">
<feFlood flood-opacity="0" result="BackgroundImageFix"/>
<feColorMatrix in="SourceAlpha" type="matrix" values="0 0 0 0 0 0 0 0 0 0 0 0 0 0 0 0 0 0 127 0"/>
<feOffset dy="4"/>
<feGaussianBlur stdDeviation="2"/>
<feColorMatrix type="matrix" values="0 0 0 0 0 0 0 0 0 0 0 0 0 0 0 0 0 0 0.25 0"/>
<feBlend mode="normal" in2="BackgroundImageFix" result="effect1_dropShadow"/>
<feBlend mode="normal" in="SourceGraphic" in2="effect1_dropShadow" result="shape"/>
</filter>
</defs>
</svg>

