<svg width="225" height="200" viewBox="0 0 225 200" fill="none" xmlns="http://www.w3.org/2000/svg">
<path d="M197.726 94.9905C197.841 91.8979 197.804 88.6971 197.597 85.3777C198.045 85.3224 198.5 85.2226 198.965 85.0169C209.504 80.3592 215.077 77.3676 211.875 65.1979C211.311 63.0617 209.446 61.9548 207.368 61.7727C144.289 56.2301 75.1562 49.9543 13.2099 66.4152C10.6052 67.1073 8.92442 70.5419 10.5663 72.9013C16.1665 80.9502 20.5602 80.9349 29.8055 79.4849C29.6466 79.6565 29.4924 79.8421 29.3747 80.1054C28.9957 80.9478 28.6826 81.7751 28.3448 82.6082C28.2071 82.56 28.1071 82.4742 27.9529 82.4436C14.5963 79.8468 -0.798728 86.3717 0.0322293 101.996C0.677222 114.152 15.3002 122.142 26.2733 118.077C43.428 169.108 150.122 184.331 186.023 132.414C186.273 134.436 187.724 136.381 190.405 136.705C205.499 138.531 222.591 127.869 223.946 111.957C225.282 96.2266 210.493 91.1024 197.726 94.9905ZM24.3948 110.16C20.9027 110.515 17.4682 111.119 13.989 109.474C11.0536 108.086 9.02917 105.218 8.64665 101.996C7.45906 91.9954 18.1085 88.6172 26.1839 88.6489C23.9158 96.2971 23.4391 103.48 24.3948 110.16ZM161.639 141.096C145.377 153.035 124.298 156.49 104.576 155.573C62.9096 153.639 26.7335 126.187 33.5601 81.8655C33.8014 80.2992 32.3595 78.9245 31.0331 78.9374C32.4949 77.6672 31.4721 74.6474 29.2311 74.4876C26.4381 74.9259 24.0806 74.4735 22.1291 73.1951C52.5909 65.6773 84.4144 65.4387 115.651 65.937C133.714 66.226 151.76 67.28 169.784 68.4574C177.916 68.9885 186.047 69.5278 194.175 70.1236C205.382 70.9449 203.769 73.1575 194.785 77.3934C191.991 75.8142 187.878 76.9775 187.757 81.2569C187.084 105.056 181.742 126.335 161.639 141.096ZM215.696 111.776C213.507 124.024 200.911 126.983 190.404 127.434C189.831 127.459 189.369 127.615 188.908 127.768C193.262 120.108 196.191 111.165 197.289 100.859C197.362 100.848 197.422 100.868 197.5 100.852C206.084 99.0244 217.776 100.136 215.696 111.776Z" fill="#F5F0EA"/>
<path d="M182.755 160.876C180.565 158.279 176.738 160.03 175.768 162.718C172.164 172.709 167.686 180.418 159.011 185.571C157.576 181.431 155.58 177.559 153.882 173.374C152.731 170.536 148.435 169.099 146.733 172.44C142.916 179.931 136.571 184.311 131.064 190.046C126.461 184.987 121.846 180.893 119.347 173.54C118.613 171.383 115.571 170.097 113.857 172.093C108.224 178.652 100.585 182.262 94.9228 188.565C91.0799 184.19 86.5649 180.522 82.236 176.543C80.4717 174.921 78.0718 175.764 77.2526 177.857C74.3242 185.346 69.7257 192.157 62.8827 186.859C55.6595 181.265 49.8887 173.904 44.9559 166.311C43.6494 164.3 40.1361 163.819 38.9521 166.311C32.8799 179.095 34.3771 189.337 44.6204 199.276C46.3883 200.992 49.5791 198.724 48.1185 196.582C43.0433 190.668 41.4414 183.69 43.1904 175.685C50.0864 184.644 58.1947 192.131 67.8766 198.399C69.2949 199.316 71.5724 198.766 72.3386 197.231C74.7856 192.322 78.7838 188.432 81.285 183.709C85.2349 187.215 89.265 190.696 92.2922 195.033C93.6681 197.004 96.281 197.037 97.651 195.033C102.138 188.468 109.111 185.031 114.938 180.116C118.254 186.988 123.385 191.747 128.428 198.178C129.592 199.661 132.438 199.577 133.619 198.178C138.568 192.311 144.559 188.15 149.312 182.498C150.683 185.722 151.952 188.978 152.611 192.414C152.985 194.369 155.627 195.997 157.538 195.206C169.044 190.451 175.733 182.732 180.641 172.455C184.22 179.276 184.207 186.218 181.747 194.371C180.037 200.038 188.826 202.408 190.579 196.802C194.805 183.286 191.75 171.541 182.755 160.876Z" fill="#F5F0EA"/>
<path d="M59.6151 41.5061C55.6769 34.611 48.9268 29.8533 43.1054 24.6525C40.4831 22.3107 37.696 19.7609 36.4495 16.392C34.7099 11.6872 39.1331 7.62628 38.5081 2.92379C38.2633 1.08721 36.8285 -0.439163 34.8159 0.115454C25.2293 2.75693 24.2759 16.8468 28.8297 24.0827C34.6629 33.3537 46.8459 37.8036 54.4917 45.453C57.1328 48.0933 61.4524 44.721 59.6151 41.5061Z" fill="#F5F0EA"/>
<path d="M95.5712 38.8587C86.6579 37.0069 85.967 31.6981 86.8332 23.8971C87.4194 18.6106 89.3896 9.66275 83.9731 6.32801C82.4819 5.41032 80.0903 5.90383 79.2958 7.5524C77.6456 10.9753 78.9521 15.2289 78.7661 18.989C78.5719 22.9112 77.8222 26.8158 78.1776 30.7487C79.0722 40.6095 86.2848 42.875 94.9709 43.2874C97.505 43.4084 98.0711 39.3781 95.5712 38.8587Z" fill="#F5F0EA"/>
<path d="M143.298 4.94616C141.013 0.685498 135.623 3.22709 135.114 7.15874C134.525 11.7073 135.048 14.9116 132.366 18.9525C130.411 21.8983 127.526 24.2496 125.255 26.9486C120.343 32.785 120.199 39.1384 124.873 45.0546C126.6 47.239 130.103 44.8725 129.382 42.4343C127.163 34.9259 133.604 31.3644 138.206 26.5397C143.544 20.9454 147.232 12.283 143.298 4.94616Z" fill="#F5F0EA"/>
<path d="M188.283 1.00171C185.233 0.731461 183.225 4.63838 184.788 7.08006C186.18 9.25266 190.047 11.3947 190.207 13.921C190.403 16.989 186.356 20.6115 184.558 22.6643C179.777 28.1222 174.013 32.8775 170.647 39.4047C169.014 42.5702 173.102 46.0717 175.722 43.3128C182.892 35.761 192.322 29.9494 197.986 21.0992C203.237 12.894 197.96 1.86065 188.283 1.00171Z" fill="#F5F0EA"/>
</svg>
